<?xml version="1.0" standalone="no"?>
<!DOCTYPE svg PUBLIC "-//W3C//DTD SVG 20010904//EN"
 "http://www.w3.org/TR/2001/REC-SVG-20010904/DTD/svg10.dtd">
<svg version="1.0" xmlns="http://www.w3.org/2000/svg"
 width="840.000000pt" height="1200.000000pt" viewBox="0 0 840.000000 1200.000000"
 preserveAspectRatio="xMidYMid meet">

<g transform="translate(0.000000,1200.000000) scale(0.100000,-0.100000)"
fill="#000000" stroke="none">
<path d="M2195 11986 c-39 -17 -92 -77 -115 -131 -30 -70 -106 -312 -155 -495
-47 -174 -47 -175 -89 -205 -49 -37 -85 -98 -94 -162 -7 -45 -11 -50 -82 -100
-137 -98 -182 -137 -267 -235 -76 -88 -92 -102 -167 -138 -66 -32 -94 -40
-138 -40 -71 0 -190 -21 -407 -71 -234 -54 -353 -66 -473 -49 -182 25 -174 25
-194 -5 -16 -25 -16 -32 -1 -123 42 -239 173 -383 431 -473 113 -39 250 -68
364 -76 50 -3 92 -10 92 -14 0 -13 -224 -177 -462 -337 -125 -85 -246 -170
-269 -191 l-42 -37 -11 -109 c-6 -61 -10 -200 -10 -309 l1 -200 31 -26 c31
-25 32 -29 32 -102 0 -176 93 -309 249 -355 41 -12 79 -14 149 -10 l95 6 -7
-66 c-13 -130 -80 -223 -184 -257 -123 -41 -69 -125 81 -128 34 0 77 2 95 6
47 11 40 -5 -26 -64 -61 -54 -171 -115 -228 -126 -35 -6 -64 -36 -64 -65 0
-40 69 -68 191 -76 178 -12 370 61 508 193 l78 74 44 -24 c77 -43 237 -76 294
-62 28 7 48 37 39 60 -3 8 -26 30 -50 49 -45 35 -104 102 -104 118 0 5 28 9
63 9 94 0 136 10 153 35 21 32 9 50 -54 86 -70 39 -165 136 -211 213 -19 32
-47 93 -62 136 l-28 79 30 26 c74 61 277 165 374 190 70 18 183 19 272 4 54
-10 67 -16 92 -48 72 -91 126 -221 159 -380 14 -71 17 -140 17 -391 0 -205 -4
-327 -13 -372 -18 -98 -61 -222 -146 -427 -100 -240 -133 -354 -152 -512 -5
-50 -3 -60 16 -79 30 -30 59 -22 97 30 47 64 105 132 109 128 2 -2 -6 -32 -16
-67 -35 -110 -45 -234 -31 -378 16 -169 19 -183 47 -195 42 -20 66 2 97 86 16
42 32 76 36 76 4 0 13 -30 20 -67 16 -88 65 -238 107 -331 52 -115 60 -188 69
-641 7 -330 13 -391 81 -731 90 -453 92 -543 20 -935 -47 -254 -57 -362 -46
-454 11 -83 51 -179 102 -244 l33 -41 -1 -171 c0 -124 -5 -193 -18 -255 -28
-133 -102 -362 -168 -520 -120 -289 -147 -386 -148 -522 l0 -76 -96 -174
c-129 -231 -144 -264 -144 -319 0 -87 61 -127 175 -115 l63 6 22 -44 c30 -62
81 -86 182 -86 214 0 459 154 582 365 44 75 96 214 111 297 4 20 13 39 20 42
18 7 52 155 54 235 l1 34 24 -22 c51 -48 102 0 77 71 -10 26 -40 271 -41 326
0 10 5 10 20 2 26 -14 57 -5 71 21 8 16 -3 54 -60 197 -88 225 -127 348 -146
464 -19 117 -11 231 21 311 65 163 83 307 78 607 -5 253 4 358 46 528 38 153
151 516 178 569 21 40 149 193 162 193 7 0 29 -150 60 -415 40 -331 23 -490
-95 -885 -64 -216 -79 -298 -78 -430 1 -126 23 -230 66 -317 21 -40 25 -64 26
-142 1 -51 3 -96 5 -100 3 -3 0 -60 -5 -126 -18 -234 -80 -475 -185 -718 -108
-249 -149 -380 -142 -447 1 -18 -39 -109 -122 -275 -117 -232 -125 -252 -125
-306 0 -47 4 -62 24 -83 36 -38 90 -50 159 -35 39 8 57 8 60 1 10 -30 51 -78
82 -96 77 -46 267 -12 409 71 86 51 208 172 259 259 49 83 95 203 112 294 7
36 18 83 26 105 7 22 18 59 24 83 9 35 15 42 29 37 47 -14 70 23 97 158 16 76
15 188 -2 231 -4 10 -1 16 9 16 9 0 23 7 31 16 34 33 15 242 -47 524 -54 242
-70 346 -71 470 l-1 115 42 85 c50 100 67 162 88 325 58 455 100 578 412 1230
72 149 140 296 153 328 25 65 21 64 120 37 l36 -10 87 -267 c113 -351 186
-501 311 -640 63 -69 117 -108 266 -188 69 -37 138 -79 153 -94 65 -60 91
-137 107 -319 9 -112 9 -116 -25 -245 -73 -286 -184 -510 -357 -723 -123 -151
-160 -232 -160 -349 1 -38 8 -92 16 -119 15 -48 14 -52 -6 -85 -54 -89 -188
-268 -270 -361 -89 -101 -108 -135 -108 -198 0 -83 55 -125 161 -124 l67 0 6
-37 c14 -88 86 -133 223 -139 206 -10 364 88 458 283 59 121 85 250 85 420 l0
126 49 59 c27 32 59 76 71 98 21 38 25 40 68 39 l44 -2 34 60 c29 52 72 172
88 246 5 22 10 25 40 21 28 -3 37 1 49 20 25 39 45 153 62 353 28 344 37 376
154 590 93 171 110 217 111 298 0 62 -4 75 -54 171 -70 134 -86 189 -86 298 0
89 24 228 40 228 4 0 36 -66 70 -147 167 -397 291 -582 465 -695 41 -27 60
-46 61 -61 1 -12 13 -65 27 -117 72 -275 60 -594 -38 -965 -57 -218 -134 -444
-186 -543 -46 -88 -48 -95 -35 -120 16 -31 82 -102 139 -150 l38 -33 -77 -117
c-83 -127 -146 -211 -234 -312 -62 -70 -80 -110 -80 -174 0 -93 67 -141 185
-134 l73 5 5 -40 c8 -56 34 -87 100 -121 50 -25 69 -29 145 -29 143 0 262 45
360 137 144 135 212 336 212 630 l0 128 35 48 c44 60 65 119 65 182 0 48 1 50
25 44 74 -19 91 101 49 346 -6 33 -4 38 13 38 28 0 43 20 43 57 0 18 -24 184
-54 370 -81 502 -105 704 -107 908 l-1 120 54 105 c103 201 105 289 9 625 -79
279 -95 403 -80 625 14 196 54 381 179 830 79 282 108 451 117 685 16 426
-102 884 -296 1150 -58 79 -61 68 41 125 88 48 207 170 247 251 36 73 67 213
57 253 -13 52 -45 51 -153 -5 -60 -32 -99 -47 -101 -40 -2 7 1 17 6 24 28 35
65 167 69 253 21 364 -220 664 -649 808 -116 39 -158 33 -158 -24 0 -18 13
-37 45 -64 45 -37 115 -130 115 -152 0 -8 -16 -6 -50 7 -79 30 -136 40 -236
41 -103 1 -124 -8 -124 -51 0 -20 14 -39 54 -74 67 -58 100 -122 94 -180 -7
-61 -40 -123 -134 -255 -94 -131 -151 -236 -161 -294 -6 -39 -6 -39 -42 -34
-195 29 -349 8 -701 -99 -278 -83 -419 -115 -620 -141 -100 -13 -370 -7 -465
9 -217 38 -395 109 -577 229 -330 219 -604 588 -737 994 -34 105 -87 332 -78
340 1 1 25 -11 52 -28 124 -78 320 -141 476 -153 319 -26 728 142 917 375 123
153 143 283 50 340 -42 25 -81 25 -215 -2 -314 -63 -506 1 -860 289 -65 52
-144 113 -176 135 -118 80 -252 128 -358 128 l-56 0 -7 78 c-11 123 10 268 56
396 17 47 19 64 11 87 -12 32 -14 28 171 314 114 175 197 338 203 399 4 35 1
47 -17 64 -47 43 -127 37 -211 -17 -64 -40 -131 -101 -361 -328 -109 -107
-201 -192 -206 -189 -4 2 -27 -4 -51 -15 -24 -10 -50 -19 -59 -19 -8 0 -74 29
-146 65 -220 108 -451 171 -606 164 l-55 -3 3 53 c3 38 0 57 -12 70 -15 16
-15 35 -6 167 13 196 13 408 -1 497 -16 108 -55 138 -134 103z m79 -822 c9 -8
16 -32 16 -52 1 -60 13 -67 120 -69 112 -1 195 -18 368 -74 156 -50 260 -97
326 -147 48 -36 54 -38 94 -29 77 15 205 -29 329 -114 58 -41 66 -62 45 -135
-18 -64 -23 -327 -8 -414 10 -59 54 -90 127 -90 115 0 236 -64 449 -236 307
-248 489 -339 698 -351 77 -5 116 -1 230 22 152 31 187 29 202 -11 15 -39 -3
-91 -59 -170 -166 -238 -479 -374 -855 -374 -162 0 -264 22 -391 85 -164 81
-349 242 -532 461 -119 142 -103 88 23 -76 40 -53 54 -85 89 -200 14 -47 27
-63 81 -109 35 -30 61 -59 57 -64 -3 -6 -1 -7 5 -3 17 10 52 -31 52 -62 0 -15
14 -83 30 -151 25 -102 28 -126 18 -140 -11 -14 -11 -14 3 -3 14 11 18 9 23
-12 3 -13 4 -30 3 -38 -2 -7 -2 -9 1 -4 3 5 13 -12 24 -38 10 -26 15 -53 12
-59 -4 -7 -3 -9 1 -4 11 10 37 -51 28 -67 -3 -6 -2 -8 2 -3 11 10 78 -121 69
-135 -4 -6 -3 -8 3 -5 13 8 45 -47 37 -66 -3 -8 -1 -18 5 -22 7 -4 9 1 5 12
-3 12 1 10 13 -7 91 -124 122 -173 117 -182 -4 -6 -2 -8 3 -5 13 8 47 -28 39
-42 -4 -5 -1 -13 5 -17 8 -5 10 -2 4 7 -4 8 11 -4 34 -26 23 -22 43 -51 46
-64 2 -13 7 -26 11 -30 4 -3 4 3 0 14 -5 14 3 10 28 -14 27 -26 33 -37 23 -44
-8 -6 -6 -7 7 -3 13 4 34 -9 75 -46 31 -28 55 -55 53 -60 -1 -5 2 -7 7 -4 5 3
24 -7 44 -22 19 -15 60 -45 91 -66 30 -22 53 -43 50 -47 -3 -5 3 -6 12 -2 13
5 15 3 9 -7 -5 -8 -4 -11 3 -7 5 4 42 -11 80 -33 177 -102 391 -158 639 -167
275 -10 446 19 818 135 435 137 621 166 818 128 57 -11 67 -11 67 1 0 8 4 12
8 9 5 -3 9 1 9 9 0 10 -4 12 -12 5 -7 -6 -20 -7 -30 -4 -24 9 -16 73 18 147
21 47 29 55 46 50 12 -3 21 -1 21 6 0 5 -7 8 -16 4 -12 -4 -15 -2 -12 8 3 8
14 13 24 11 15 -2 16 -1 5 6 -11 8 0 27 49 91 35 44 67 78 73 74 6 -3 7 -2 4
4 -3 5 12 36 35 69 22 32 38 49 35 36 -3 -12 -1 -19 4 -16 5 3 8 15 7 27 -2
12 3 46 11 76 11 45 11 62 0 110 -7 31 -13 61 -12 68 0 7 -2 11 -6 10 -3 -1
-26 19 -50 46 l-44 47 47 0 c62 0 178 -29 169 -43 -3 -6 -1 -7 5 -3 16 9 113
-34 105 -47 -3 -6 -1 -7 5 -3 6 4 21 2 33 -5 16 -8 18 -13 9 -19 -7 -4 -8 -10
-3 -13 6 -4 23 8 39 25 16 17 23 28 17 24 -8 -4 -13 -1 -13 9 0 34 -62 173
-99 221 l-39 51 46 -13 c120 -37 259 -124 364 -229 75 -75 120 -146 156 -247
24 -65 27 -87 26 -203 0 -115 -3 -139 -28 -210 -15 -44 -43 -106 -62 -138 -31
-53 -40 -77 -30 -77 2 0 43 7 92 15 58 11 107 26 142 46 29 16 58 27 64 23 16
-10 2 -89 -27 -151 -47 -104 -201 -234 -331 -279 -51 -18 -51 -18 -83 6 -26
17 -35 20 -41 10 -5 -8 15 -43 56 -98 352 -466 461 -1015 328 -1642 -13 -63
-51 -214 -84 -335 -122 -452 -150 -599 -157 -840 -4 -132 -1 -190 11 -260 9
-49 21 -114 26 -144 l10 -54 -47 -50 -46 -49 7 -84 c8 -101 -3 -134 -87 -243
-60 -79 -82 -136 -72 -184 16 -74 88 -145 190 -185 l47 -18 3 -130 c6 -221 51
-626 118 -1061 13 -84 21 -153 17 -153 -4 0 -28 16 -54 37 -28 22 -50 33 -56
27 -5 -5 4 -45 25 -99 56 -149 85 -335 52 -335 -7 0 -26 18 -43 40 -46 62 -55
54 -48 -42 3 -46 8 -89 10 -96 7 -22 -16 -142 -33 -176 -29 -57 -88 -124 -123
-141 -59 -29 -137 -30 -277 -5 l-128 24 -89 85 c-121 117 -146 153 -146 208 0
28 26 120 69 251 82 245 142 458 167 597 15 79 19 148 19 325 -1 208 -3 233
-27 336 -14 61 -35 131 -47 156 -11 25 -18 54 -15 65 4 16 -21 45 -121 139
-141 133 -211 218 -255 308 l-30 61 16 60 c25 93 66 173 134 260 34 44 71 97
81 117 24 48 25 88 2 88 -12 0 -14 -3 -7 -8 22 -13 1 -92 -25 -93 -9 0 -11 -3
-4 -5 18 -8 -16 -43 -36 -37 -14 4 -14 3 -1 -6 14 -10 8 -25 -11 -27 -5 -1
-13 -2 -19 -3 -5 0 -7 -7 -4 -15 8 -20 -14 -58 -28 -50 -7 4 -8 3 -4 -4 4 -7
3 -12 -2 -12 -6 0 -13 -12 -17 -27 -5 -21 -8 -24 -16 -12 -7 11 -9 9 -9 -9 0
-33 -19 -64 -33 -56 -9 5 -9 4 -1 -5 8 -8 9 -22 3 -39 -4 -15 -12 -42 -16 -60
-8 -31 -11 -25 -67 115 -33 81 -94 219 -137 305 -48 96 -76 165 -73 175 4 13
3 14 -3 5 -7 -9 -13 -6 -21 13 -7 15 -9 31 -6 37 4 6 2 8 -4 4 -13 -8 -92 155
-134 279 -17 49 -35 95 -39 100 -17 24 -33 138 -33 235 0 92 5 125 30 208 3 9
-2 5 -10 -10 -23 -39 -46 -144 -46 -210 l0 -58 -57 -29 c-232 -116 -514 -209
-753 -246 -134 -21 -385 -21 -506 0 -86 15 -193 40 -199 47 -2 2 5 35 15 75
20 75 37 202 27 193 -3 -3 -15 -49 -27 -102 -41 -188 -97 -334 -237 -615 l-97
-193 -46 0 c-59 0 -113 -19 -181 -63 -30 -19 -104 -62 -165 -97 -207 -115
-250 -173 -242 -319 4 -75 9 -89 83 -241 77 -158 78 -163 86 -260 9 -113 24
-149 76 -177 33 -17 34 -19 28 -63 -12 -77 -46 -165 -96 -247 -15 -25 -17 -33
-7 -25 15 12 16 4 11 -85 -4 -66 0 -136 11 -213 16 -108 26 -153 90 -435 28
-118 44 -265 30 -265 -4 0 -27 19 -50 41 -23 23 -46 39 -51 36 -6 -4 0 -37 13
-77 45 -138 55 -293 26 -395 l-9 -30 -32 62 c-17 35 -36 63 -41 63 -6 0 -10
-24 -10 -53 0 -70 -15 -152 -47 -259 l-26 -86 -76 -30 c-155 -61 -304 -70
-439 -27 -143 45 -202 110 -202 222 1 61 9 85 129 377 67 163 118 324 152 486
27 129 33 421 10 533 -9 46 -10 72 -4 78 7 7 1 39 -17 97 -54 167 -62 327 -25
474 9 35 41 138 70 230 91 280 99 333 99 618 0 262 -11 359 -69 606 -28 118
-31 154 -13 172 22 22 1 22 -118 -3 -124 -26 -354 -45 -353 -29 0 5 35 38 77
74 178 152 220 201 155 186 -62 -15 -289 -18 -385 -6 -54 7 -98 15 -98 19 0 3
27 14 59 24 66 21 135 63 126 78 -4 5 -34 9 -68 9 -82 0 -212 32 -289 71 -35
17 -57 25 -50 17 30 -37 216 -108 283 -108 13 0 30 -4 38 -9 19 -12 -92 -46
-181 -56 -128 -13 -75 -41 147 -76 44 -7 148 -13 231 -13 l151 0 -96 -75
c-164 -128 -174 -138 -168 -155 12 -31 291 -18 441 20 32 8 60 14 61 12 2 -2
-38 -48 -89 -103 -51 -55 -104 -120 -119 -145 -15 -25 -27 -43 -27 -40 0 3 9
39 20 80 38 145 22 133 -49 -35 -110 -263 -182 -501 -221 -728 -25 -148 -26
-321 -3 -516 20 -173 12 -266 -38 -431 -22 -74 -31 -123 -30 -164 2 -39 -2
-62 -11 -67 -20 -13 -14 -170 10 -271 25 -100 75 -240 138 -381 24 -53 44 -99
44 -102 0 -12 -24 -2 -86 36 -36 22 -69 37 -72 34 -3 -3 2 -18 11 -33 49 -75
70 -143 86 -287 6 -49 14 -105 17 -123 l5 -34 -63 51 c-62 50 -92 55 -68 11
21 -40 24 -170 6 -273 -17 -91 -20 -98 -60 -135 -24 -22 -67 -48 -97 -59 -200
-75 -428 -44 -636 86 -39 24 -43 30 -43 66 0 125 37 252 150 515 160 372 213
580 214 837 1 73 4 133 9 133 19 0 2 41 -54 132 -34 54 -70 121 -80 148 -27
72 -24 176 10 365 16 88 35 198 41 245 17 131 14 125 82 163 113 64 251 173
276 218 21 41 30 109 14 109 -5 0 -7 -14 -4 -31 3 -21 -1 -34 -14 -45 -11 -9
-13 -13 -6 -9 23 12 12 -15 -23 -54 -20 -21 -47 -42 -61 -45 -15 -4 -24 -10
-20 -13 9 -10 -33 -35 -46 -27 -7 4 -8 3 -4 -4 8 -13 -32 -38 -54 -33 -8 2
-12 0 -8 -5 12 -12 -12 -33 -29 -27 -10 4 -14 2 -10 -4 5 -8 -9 -19 -55 -40
-4 -2 -7 73 -7 166 0 133 -5 197 -22 298 -13 70 -23 145 -23 165 0 21 -3 33
-6 28 -7 -11 -74 313 -90 438 -6 45 -8 86 -5 91 3 5 1 12 -5 16 -6 4 -10 63
-10 148 0 179 -17 411 -35 501 -8 38 -13 71 -11 73 2 2 16 -16 31 -39 39 -59
105 -138 116 -138 18 0 8 20 -50 101 -147 205 -241 473 -241 685 0 40 -4 75
-9 79 -14 8 -73 -69 -119 -154 l-40 -74 -8 37 c-13 72 2 335 25 420 12 44 21
93 21 111 0 17 5 36 12 43 19 19 1 26 -40 14 -51 -16 -120 -69 -156 -121 -16
-23 -31 -40 -33 -38 -7 8 27 144 57 231 18 49 56 145 86 213 76 175 110 276
136 405 21 102 23 141 23 403 0 242 -3 307 -19 390 -33 177 -90 312 -175 420
-22 27 -39 50 -38 51 1 1 43 -5 92 -13 303 -50 631 58 867 285 82 79 188 215
176 227 -3 3 -17 -13 -31 -34 -99 -149 -256 -285 -422 -366 -157 -77 -255 -99
-430 -99 -130 0 -150 2 -277 36 -217 59 -291 60 -423 5 -94 -39 -235 -134
-349 -234 l-47 -41 26 -79 c42 -126 99 -217 200 -318 l90 -90 -90 6 c-49 4
-102 12 -117 18 -15 6 -29 7 -32 3 -8 -13 85 -161 137 -218 l49 -54 -45 0
c-62 0 -165 34 -216 70 l-42 31 -67 -59 c-185 -163 -376 -237 -530 -206 -31 6
-30 6 29 36 113 57 259 222 259 294 0 17 5 35 12 42 20 20 -5 14 -59 -12 -64
-32 -129 -48 -183 -44 l-45 3 47 27 c61 36 113 98 140 167 17 44 22 77 22 158
l1 101 45 22 c55 27 156 98 189 134 33 35 22 33 -25 -5 -56 -45 -188 -106
-269 -125 -89 -20 -203 -15 -266 13 -91 41 -148 123 -170 247 -17 99 -13 103
73 56 40 -22 77 -40 83 -40 5 0 -33 24 -85 53 -158 88 -140 55 -140 257 0 316
9 340 174 458 67 47 147 105 178 129 38 29 63 41 75 37 12 -4 14 -3 5 3 -16
12 62 78 80 67 6 -4 8 -3 5 3 -8 13 18 37 31 30 4 -3 14 -1 22 5 12 8 11 9 -5
4 -18 -5 -17 -4 4 14 12 11 27 17 32 14 5 -3 8 -1 7 4 -5 15 161 154 174 146
6 -4 8 -3 5 3 -3 5 39 54 94 109 55 54 97 90 94 79 -5 -15 -4 -17 3 -6 6 8 8
20 5 28 -3 8 0 12 8 10 8 -2 10 -2 5 1 -4 2 -2 8 5 13 11 7 11 9 1 9 -7 0 -36
-21 -63 -46 l-49 -47 -127 2 c-337 5 -585 88 -734 248 -50 53 -84 129 -95 212
-6 46 -5 51 16 59 12 5 52 4 89 -1 112 -15 251 -3 404 37 317 83 405 104 456
111 l54 7 -41 -37 c-51 -45 -66 -90 -59 -165 l6 -58 -37 -5 c-167 -27 -486
-31 -720 -8 -40 4 -75 3 -78 -1 -8 -13 26 -69 73 -119 49 -52 120 -99 156
-102 12 -2 44 -13 70 -25 68 -30 169 -59 257 -73 75 -11 322 -7 368 7 30 9 29
46 -5 187 -31 133 -36 256 -11 302 25 47 66 80 154 123 44 22 94 56 111 76 17
19 34 32 37 29 3 -4 9 8 12 26 12 57 216 234 342 296 77 37 83 45 102 124 17
73 66 122 151 149 81 26 97 29 191 31 58 1 80 -3 92 -15z m4196 -6521 c19
-121 64 -242 170 -460 l98 -202 -29 -75 c-35 -92 -54 -179 -68 -314 -14 -129
-7 -162 67 -317 49 -104 57 -129 60 -193 l4 -73 -91 -187 c-115 -238 -128
-285 -146 -567 -15 -226 -23 -292 -34 -300 -10 -6 -24 6 -55 48 -16 20 -32 37
-36 37 -4 0 -12 -46 -19 -102 -11 -94 -60 -271 -81 -292 -4 -4 -11 17 -15 47
-8 61 -29 104 -39 77 -3 -8 -19 -55 -35 -104 -37 -108 -91 -201 -165 -282 -54
-60 -56 -61 -133 -75 -43 -8 -114 -14 -158 -14 -66 0 -88 5 -125 25 -33 19
-45 32 -47 51 -1 14 -9 53 -17 86 -20 76 -20 168 -2 221 8 22 65 115 126 207
173 258 257 443 319 695 44 184 55 280 42 388 -20 160 -67 260 -168 352 l-55
50 27 31 c14 18 38 55 53 83 23 44 27 63 27 138 0 72 -3 91 -21 115 -32 44
-79 70 -173 99 -139 42 -156 54 -182 125 -29 79 -68 131 -115 154 -34 16 -204
37 -204 25 0 -10 20 -35 20 -25 0 13 100 17 100 4 0 -5 8 -8 18 -7 47 4 72 -3
72 -19 0 -9 3 -13 7 -10 9 9 43 -23 43 -40 0 -8 5 -11 10 -8 6 3 11 -1 11 -9
2 -24 4 -29 17 -52 6 -12 9 -24 6 -27 -13 -13 63 -78 108 -95 26 -9 48 -20 48
-25 0 -4 4 -5 10 -2 5 3 28 0 50 -6 29 -9 37 -15 28 -21 -9 -6 -6 -7 8 -3 25
6 76 -13 68 -26 -3 -5 2 -9 10 -9 21 0 31 -21 15 -32 -11 -8 -10 -9 3 -4 38
12 52 -160 16 -201 -8 -10 -13 -24 -10 -32 3 -9 0 -11 -8 -6 -9 5 -11 4 -6 -3
8 -14 -34 -82 -52 -82 -7 0 -10 -4 -7 -10 10 -16 4 -13 -81 35 -43 25 -87 48
-97 51 -9 3 -15 10 -12 15 3 5 -2 6 -11 2 -13 -5 -15 -3 -9 7 5 9 4 11 -3 6
-6 -4 -29 5 -51 18 -43 27 -63 50 -35 39 12 -4 15 -3 10 6 -4 6 -15 9 -25 6
-27 -8 -137 147 -126 178 4 8 2 18 -4 22 -7 4 -9 -1 -6 -12 3 -10 -8 10 -25
44 -29 61 -109 284 -180 505 l-37 117 46 -7 c25 -4 136 -7 246 -6 177 0 215 3
326 27 213 45 399 115 579 216 58 33 108 60 111 60 3 1 12 -34 19 -76z m-1923
-909 c-34 -68 -65 -120 -71 -117 -5 3 -6 1 -3 -4 9 -14 -66 -176 -76 -166 -5
4 -6 1 -2 -7 7 -20 -29 -113 -40 -103 -4 5 -5 2 -1 -4 4 -7 -2 -46 -13 -85
-27 -97 -48 -232 -56 -348 -7 -123 -17 -198 -22 -182 -3 6 -10 9 -16 5 -6 -4
-8 0 -4 10 5 13 1 16 -15 14 -31 -3 -48 36 -48 108 0 33 -4 75 -9 93 -6 20 -6
32 0 32 5 0 9 5 9 11 0 5 -4 8 -9 5 -5 -3 -11 1 -14 8 -3 8 -1 17 6 20 7 2 4
5 -5 5 -18 1 -21 8 -21 44 0 10 -2 15 -5 12 -3 -2 -10 3 -16 14 -38 65 -54 99
-49 105 4 3 2 6 -4 6 -6 0 -23 34 -38 75 -24 64 -27 86 -23 149 3 51 11 84 26
107 24 39 111 109 136 109 10 0 15 4 12 9 -8 12 40 32 61 25 14 -5 15 -4 4 4
-11 8 -7 13 18 26 17 9 37 14 43 10 6 -4 8 -3 5 3 -8 13 37 38 52 29 6 -4 11
-1 11 6 0 15 64 61 86 61 7 0 14 4 14 9 0 5 5 6 10 3 6 -3 17 1 26 10 11 10
31 15 59 14 l43 -3 -61 -122z m3503 11 c13 -55 23 -121 24 -147 1 -27 4 -48 9
-48 4 0 7 -52 7 -116 0 -63 -3 -113 -7 -111 -5 3 -8 -12 -8 -32 -1 -40 -32
-134 -43 -127 -4 2 -7 -6 -7 -19 0 -13 4 -21 9 -17 5 3 6 -2 3 -12 -4 -10 -7
-24 -7 -32 0 -11 -10 -10 -52 6 -29 11 -59 27 -65 37 -7 9 -16 14 -19 10 -12
-11 -33 13 -27 31 4 13 3 14 -5 4 -7 -10 -15 -6 -36 18 -14 17 -24 36 -20 41
3 5 1 9 -4 9 -10 0 -13 19 -12 68 0 38 27 95 40 87 5 -3 10 5 12 17 2 14 10
23 19 22 11 -1 15 5 12 15 -2 9 10 34 26 55 17 21 31 43 31 48 0 5 3 7 8 5 4
-3 7 5 8 16 2 47 3 105 1 160 -2 54 0 61 27 82 17 13 33 22 38 19 4 -3 5 3 1
13 -4 12 -3 15 4 8 6 -5 21 -55 33 -110z"/>
<path d="M1724 10609 c-70 -12 -135 -41 -213 -96 -131 -92 -297 -273 -332
-359 -6 -16 -15 -83 -19 -149 -4 -66 -11 -128 -15 -137 -5 -12 -3 -18 6 -18 7
0 10 3 7 6 -4 3 -2 20 4 37 5 18 9 60 9 95 -1 36 3 62 9 62 5 0 10 8 10 18 0
15 -2 15 -11 2 -8 -12 -9 -9 -4 10 3 14 8 38 11 53 5 36 13 49 25 42 5 -3 6 2
2 11 -4 11 -3 15 5 10 6 -4 12 3 14 16 2 13 9 22 16 20 8 -1 11 2 6 9 -4 7 6
23 24 39 17 15 28 31 24 35 -4 5 1 5 10 2 13 -4 15 -2 11 10 -5 12 -3 14 7 8
8 -5 11 -4 6 3 -3 6 -2 13 4 17 5 3 10 1 10 -4 0 -6 5 -11 11 -11 6 0 8 9 4
21 -5 16 -4 19 5 14 9 -6 11 -4 5 5 -6 10 -3 12 13 8 12 -4 22 -2 22 3 0 5 -6
9 -12 9 -7 0 -4 6 7 12 11 7 28 22 39 35 10 13 20 22 23 19 5 -5 10 -2 57 40
16 15 59 40 95 57 56 26 78 31 141 30 49 0 66 2 50 7 -23 7 -23 8 8 9 20 1 31
-3 27 -9 -4 -6 6 -8 25 -6 42 5 113 -12 123 -29 4 -8 14 -12 22 -8 19 6 47
-15 38 -29 -3 -6 0 -8 8 -6 19 7 71 -20 64 -32 -4 -6 -1 -10 6 -10 18 0 51
-42 39 -50 -6 -4 1 -12 15 -18 15 -7 23 -17 19 -23 -3 -6 0 -15 7 -20 16 -9
21 -175 7 -224 -5 -16 -11 -37 -13 -45 -15 -68 -83 -193 -100 -186 -8 2 -16
-1 -19 -9 -3 -9 2 -13 15 -12 26 2 78 94 114 201 30 89 36 197 15 262 -42 130
-172 226 -342 254 -71 11 -92 11 -164 -1z"/>
<path d="M2065 9840 c-20 -27 -41 -50 -46 -50 -5 0 -9 -7 -9 -16 0 -10 -5 -14
-16 -10 -9 3 -12 2 -9 -5 10 -15 -14 -39 -33 -32 -14 4 -15 3 -2 -6 12 -8 12
-11 -3 -17 -9 -3 -17 -12 -17 -19 0 -7 -9 -15 -21 -18 -12 -3 -18 -10 -14 -16
3 -6 -1 -11 -9 -11 -9 0 -15 -6 -13 -12 1 -7 -4 -12 -10 -11 -7 2 -12 -1 -10
-6 1 -5 -2 -9 -6 -9 -5 -1 -18 -11 -29 -24 -11 -13 -27 -22 -36 -20 -13 2 -14
1 -4 -6 17 -12 -19 -45 -41 -37 -10 5 -15 1 -14 -12 1 -11 -4 -17 -13 -15 -8
2 -12 0 -8 -4 9 -8 -32 -40 -45 -36 -5 1 -5 -3 -1 -9 5 -8 1 -10 -13 -7 -15 4
-20 1 -19 -11 0 -9 -5 -15 -11 -13 -7 1 -13 -2 -13 -6 0 -16 -93 -74 -111 -69
-11 3 -16 0 -13 -8 6 -14 -61 -65 -83 -65 -7 0 -13 -4 -13 -8 0 -11 -80 -56
-80 -45 0 4 -6 1 -13 -7 -20 -25 -67 -51 -79 -44 -6 4 -9 3 -5 -2 3 -5 -12
-19 -33 -30 -32 -18 -38 -19 -33 -5 3 9 -4 5 -15 -9 -12 -14 -24 -25 -29 -25
-4 -1 -23 -10 -42 -22 -18 -12 -44 -20 -57 -18 -13 1 -21 -1 -19 -5 3 -4 -4
-15 -15 -25 -15 -14 -23 -15 -34 -6 -10 8 -16 9 -21 1 -3 -5 2 -10 12 -10 17
-1 17 -1 -1 -12 -10 -6 -33 -11 -50 -12 -20 -1 -31 -7 -31 -16 0 -10 -10 -14
-28 -13 -19 1 -27 -3 -27 -14 0 -13 -3 -13 -15 -3 -13 11 -14 10 -9 -4 9 -23
22 -18 224 86 440 227 686 394 911 618 120 119 227 246 216 256 -2 3 -21 -18
-42 -46z"/>
<path d="M2343 9850 c-18 -7 -23 -17 -23 -43 0 -20 -10 -50 -25 -71 -35 -52
-31 -58 5 -9 34 46 69 63 117 56 l32 -5 -30 -41 c-36 -50 -37 -65 -3 -38 39
30 80 27 116 -9 28 -28 30 -35 26 -82 -7 -65 -40 -98 -97 -98 -38 0 -62 18
-90 65 -21 35 -1 -84 21 -133 11 -23 37 -56 57 -72 45 -38 34 -38 -43 1 -58
29 -60 29 -31 5 60 -51 135 -81 214 -85 72 -3 151 11 151 28 0 5 -30 7 -67 5
l-68 -4 38 15 c93 35 161 126 175 229 l7 55 38 -35 c21 -19 35 -39 32 -44 -10
-16 86 -12 143 5 28 9 64 27 79 40 l28 24 -77 -6 -76 -6 -69 58 c-80 68 -155
118 -221 146 -106 46 -300 72 -359 49z"/>
<path d="M1047 9705 c-15 -14 -24 -25 -19 -25 5 0 19 11 32 25 30 32 23 32
-13 0z"/>
<path d="M2152 9601 c-88 -58 -105 -74 -37 -35 95 53 140 84 125 83 -8 0 -48
-22 -88 -48z"/>
<path d="M3350 9642 c0 -6 19 -13 43 -17 23 -4 49 -11 58 -16 10 -5 45 -53 79
-108 144 -234 355 -419 555 -487 107 -36 323 -45 459 -20 101 19 227 63 295
102 77 46 164 116 151 124 -6 4 7 14 33 24 48 18 142 75 135 81 -2 3 -39 -13
-81 -34 -306 -154 -762 -120 -1097 81 -41 25 -117 71 -169 102 -126 77 -213
120 -291 144 -82 25 -170 37 -170 24z"/>
<path d="M850 9525 c-11 -13 -10 -14 4 -9 9 3 16 10 16 15 0 13 -6 11 -20 -6z"/>
<path d="M3286 9468 c-2 -7 -9 -47 -16 -88 -7 -41 -25 -126 -41 -189 -16 -63
-27 -117 -25 -119 3 -2 23 54 46 125 39 119 66 283 46 283 -4 0 -8 -6 -10 -12z"/>
<path d="M608 9336 c-10 -7 -15 -16 -11 -19 10 -11 25 -8 18 3 -6 9 8 14 28
11 5 -1 6 3 2 9 -8 13 -16 12 -37 -4z"/>
<path d="M1295 9220 c3 -5 8 -10 11 -10 2 0 4 5 4 10 0 6 -5 10 -11 10 -5 0
-7 -4 -4 -10z"/>
<path d="M453 9213 c-18 -7 -16 -23 2 -23 8 0 15 7 15 15 0 8 -1 15 -2 14 -2
0 -9 -3 -15 -6z"/>
<path d="M361 9150 c-13 -11 -19 -20 -13 -20 5 0 15 7 22 15 7 8 16 12 21 9 5
-3 9 0 9 5 0 16 -12 13 -39 -9z"/>
<path d="M3576 9098 c4 -13 23 -54 42 -93 67 -131 53 -227 -59 -411 -34 -54
-80 -137 -103 -184 -37 -76 -41 -93 -41 -160 0 -92 27 -153 96 -220 50 -49
109 -87 109 -71 0 5 -9 13 -20 16 -11 4 -17 11 -14 17 4 7 2 8 -4 4 -6 -4 -29
10 -52 30 -30 28 -40 44 -40 68 0 21 -3 27 -9 17 -7 -11 -13 -8 -27 14 -12 18
-14 29 -6 34 7 4 8 12 2 21 -8 12 -10 11 -11 -5 0 -14 -3 -11 -10 10 -14 43
-3 137 23 197 18 43 23 48 30 32 6 -15 7 -13 3 7 -5 29 55 135 70 122 4 -4 5
0 2 10 -4 9 -2 17 3 17 6 0 10 7 10 15 0 8 5 15 11 15 5 0 7 -4 4 -10 -3 -5
-1 -10 4 -10 14 0 14 13 -1 28 -8 8 -8 12 -1 12 6 0 14 12 18 27 5 22 8 24 16
12 8 -10 9 -8 4 10 -4 13 -3 21 1 18 5 -3 10 7 11 21 0 15 6 28 12 30 6 2 9 8
6 13 -3 5 0 19 6 31 15 27 19 159 5 150 -5 -3 -7 2 -3 11 4 10 1 17 -6 17 -8
0 -7 4 3 11 13 9 12 10 -2 5 -18 -5 -21 3 -21 56 0 9 -5 14 -12 12 -7 -3 -19
12 -29 35 -17 43 -32 57 -20 19z"/>
<path d="M275 9081 c3 -5 1 -12 -5 -16 -5 -3 -10 -1 -10 6 0 7 -3 10 -6 6 -3
-3 4 -19 17 -36 20 -27 21 -35 11 -68 -19 -65 -25 -165 -13 -211 17 -60 42
-82 94 -82 45 0 82 17 252 113 55 32 123 64 150 73 65 21 78 34 34 34 -51 0
-84 11 -67 22 8 5 -2 6 -27 3 -31 -5 -37 -4 -25 5 12 9 11 10 -6 5 -12 -3 -80
8 -152 25 -71 16 -133 30 -137 30 -3 0 -3 5 1 12 5 7 3 8 -5 4 -7 -5 -28 -5
-47 -2 -26 5 -36 13 -41 34 -4 15 -6 33 -5 40 2 6 -2 12 -8 12 -6 0 -9 -4 -5
-9z"/>
<path d="M3701 8984 c0 -11 3 -14 6 -6 3 7 2 16 -1 19 -3 4 -6 -2 -5 -13z"/>
<path d="M538 8973 c6 -2 18 -2 25 0 6 3 1 5 -13 5 -14 0 -19 -2 -12 -5z"/>
<path d="M1580 8830 c-31 -6 -32 -8 -8 -9 15 0 39 -6 55 -12 l28 -11 -60 -56
c-77 -73 -145 -108 -330 -172 -82 -29 -231 -89 -330 -135 -169 -78 -248 -107
-320 -119 -16 -2 20 -3 80 -1 141 4 239 35 368 116 50 33 139 77 197 99 244
94 311 133 378 218 l33 41 34 -20 c56 -33 72 -11 29 40 -22 27 -32 31 -72 30
-26 -1 -63 -5 -82 -9z"/>
<path d="M7580 8665 c0 -3 11 -10 25 -15 25 -9 35 -30 14 -30 -5 0 -7 -5 -3
-11 4 -8 9 -7 14 2 7 10 11 10 24 0 15 -13 11 -45 -5 -35 -5 3 -9 1 -9 -5 0
-21 22 -22 27 -2 4 17 8 19 19 10 8 -6 11 -16 7 -22 -3 -5 -1 -7 4 -4 13 8 46
-27 36 -38 -5 -4 -2 -5 5 -1 9 5 15 1 19 -13 3 -12 9 -21 14 -21 14 0 49 -62
42 -73 -3 -6 -1 -7 6 -3 7 5 13 -4 17 -24 4 -17 9 -28 12 -25 3 3 16 -17 29
-45 29 -63 39 -145 22 -185 -6 -16 -13 -36 -15 -44 -1 -7 -12 -23 -23 -35 -12
-12 -21 -29 -21 -37 -1 -16 -25 -51 -31 -45 -2 3 -5 -7 -6 -22 0 -14 -8 -31
-16 -37 -8 -6 -14 -19 -14 -30 2 -38 -15 -125 -23 -120 -4 3 -11 -2 -14 -11
-9 -24 -7 -31 4 -14 8 13 10 13 10 -2 0 -9 -5 -20 -11 -23 -6 -4 -8 -13 -5
-20 7 -19 -13 -87 -24 -80 -4 3 -6 -5 -2 -17 3 -12 1 -19 -5 -15 -5 3 -9 -4
-9 -16 1 -16 -4 -21 -16 -19 -10 2 -18 -2 -18 -8 0 -6 5 -8 10 -5 15 9 12 -2
-6 -30 -9 -14 -20 -22 -25 -19 -5 3 -9 -3 -9 -13 0 -15 -2 -16 -11 -3 -9 13
-10 13 -6 -2 11 -32 -23 -27 -115 16 -51 24 -125 55 -163 69 -64 23 -71 23
-71 8 0 -10 5 -18 11 -18 5 0 34 -10 63 -23 46 -20 51 -25 40 -39 -11 -14 -11
-14 4 -3 14 11 27 8 85 -22 37 -19 61 -35 52 -36 -8 0 -21 6 -28 13 -10 10
-12 9 -9 -3 3 -13 -22 -16 -160 -20 -89 -3 -162 -8 -162 -13 1 -23 -15 -64
-28 -74 -10 -8 -11 -13 -4 -13 7 0 12 -7 12 -16 0 -8 -4 -13 -8 -10 -4 2 -8
-10 -9 -28 -1 -43 -22 -106 -35 -106 -6 0 -8 -7 -4 -15 3 -8 1 -15 -4 -15 -6
0 -9 -3 -9 -7 1 -5 1 -15 -1 -23 -1 -11 -4 -9 -11 5 l-9 20 2 -20 c1 -11 -4
-31 -11 -44 -11 -19 -15 -21 -23 -10 -8 11 -9 11 -5 -2 6 -17 -27 -52 -38 -41
-4 4 -5 0 -3 -8 2 -9 -3 -14 -12 -12 -8 2 -12 0 -8 -4 10 -9 -52 -55 -64 -48
-4 3 -11 -2 -14 -10 -3 -9 -10 -16 -16 -16 -5 0 -16 -7 -24 -15 -21 -20 -35
-19 -28 3 2 9 -1 7 -7 -5 -11 -21 -24 -27 -56 -26 -7 1 -11 -3 -8 -7 6 -10
-11 -16 -70 -26 -22 -4 -43 -11 -46 -17 -4 -5 -32 -10 -63 -10 -31 0 -56 -4
-56 -8 0 -5 -12 -4 -26 1 -16 7 -23 7 -19 0 4 -6 -8 -10 -29 -10 -19 0 -38 5
-41 10 -4 7 -13 6 -27 -1 -11 -6 -18 -7 -15 -2 3 5 -8 9 -26 9 -45 0 -91 12
-95 24 -2 5 -8 8 -12 5 -15 -9 -60 6 -53 18 3 6 1 7 -5 3 -8 -4 -12 0 -12 11
0 15 -2 16 -10 3 -8 -12 -12 -13 -19 -2 -4 8 -11 14 -14 14 -21 0 -46 12 -41
19 3 5 -4 9 -16 9 -11 0 -74 29 -139 65 -64 36 -122 65 -129 65 -7 0 -12 4
-12 9 0 5 -15 11 -32 15 -27 5 -30 9 -18 17 13 9 12 10 -2 5 -10 -3 -39 1 -65
9 -27 8 -58 15 -71 15 -13 0 -21 4 -18 8 3 5 -35 8 -85 8 -49 -1 -89 -5 -89
-9 0 -5 -4 -5 -10 -2 -5 3 -10 3 -10 -2 0 -11 -51 -34 -61 -27 -5 3 -9 0 -9
-5 0 -6 -5 -11 -11 -11 -5 0 -7 6 -3 13 5 8 2 7 -9 -2 -10 -8 -15 -16 -12 -19
7 -7 -98 -77 -112 -74 -12 3 -27 -15 -28 -33 0 -5 -12 -9 -25 -7 -17 1 -21 -1
-12 -6 10 -7 8 -14 -7 -33 -18 -21 -22 -22 -31 -9 -9 12 -10 10 -8 -9 2 -14
-3 -26 -11 -29 -8 -3 -11 0 -7 7 4 6 2 11 -3 11 -6 0 -10 -10 -8 -22 1 -17 -3
-23 -17 -23 -11 0 -20 -8 -22 -19 -1 -10 -8 -23 -16 -27 -18 -11 -25 0 -8 12
13 9 13 10 0 6 -8 -2 -15 -12 -15 -23 0 -10 -6 -19 -13 -19 -6 0 -11 -3 -9 -6
1 -4 -7 -16 -17 -28 -15 -17 -22 -19 -28 -9 -6 9 -8 7 -6 -7 2 -14 -3 -20 -17
-20 -11 0 -19 -5 -18 -12 3 -16 -68 -74 -80 -66 -6 3 -7 1 -4 -4 7 -12 -64
-63 -88 -63 -8 0 -15 -5 -15 -11 0 -6 -7 -9 -15 -5 -8 3 -14 0 -12 -7 1 -6 -8
-13 -20 -15 -13 -2 -23 -7 -23 -12 0 -12 -40 -24 -68 -21 -13 1 -29 -5 -35
-13 -8 -11 -32 -18 -72 -20 -33 -2 -69 -8 -79 -12 -15 -6 -17 -4 -11 6 8 12
-13 12 -61 -1 -20 -6 -124 13 -124 22 0 6 -4 7 -10 4 -5 -3 -10 -1 -10 5 0 6
-4 8 -10 5 -12 -7 -70 22 -70 36 0 6 -4 8 -8 5 -4 -2 -14 -1 -22 5 -10 6 -11
9 -2 9 6 0 12 5 12 11 0 8 -4 8 -14 0 -11 -10 -23 -4 -56 28 -26 25 -39 44
-34 52 4 7 3 10 -4 5 -14 -9 -42 32 -35 52 4 9 2 13 -4 9 -14 -9 -35 41 -28
64 4 13 1 19 -9 19 -27 0 -60 176 -52 275 3 39 6 78 7 88 0 9 4 15 8 13 5 -3
6 5 4 18 -6 29 15 108 27 101 4 -3 6 4 3 15 -3 13 0 20 8 20 11 0 11 2 -1 10
-8 5 -10 10 -5 10 6 0 12 14 13 31 1 17 9 46 17 65 8 19 12 34 11 34 -2 0 2
19 9 43 7 23 17 41 21 40 5 -1 9 54 9 121 0 103 -3 125 -18 140 -9 10 -14 23
-10 29 3 7 3 9 -2 5 -4 -4 -18 6 -30 22 -12 16 -25 27 -28 24 -8 -9 -27 32
-19 41 4 5 -1 5 -12 1 -12 -4 -38 4 -73 24 -30 17 -57 29 -60 27 -2 -3 29 -23
69 -45 41 -22 92 -60 115 -85 76 -83 80 -165 17 -377 -92 -313 -109 -434 -80
-577 63 -311 271 -479 569 -459 215 14 363 103 681 405 87 83 188 171 225 195
180 120 339 113 604 -26 389 -203 453 -225 627 -215 156 9 288 49 423 128 146
86 211 180 263 379 15 58 30 108 33 112 3 3 94 8 201 10 l195 3 58 -39 c32
-21 61 -35 65 -31 7 6 -31 45 -76 76 l-22 16 49 50 c59 61 82 119 122 301 20
95 39 154 66 205 20 40 46 90 57 112 15 29 21 59 21 105 0 76 -36 162 -112
268 -78 110 -223 244 -223 207z"/>
<path d="M3817 8573 c-12 -12 -7 -30 8 -30 10 0 12 4 5 12 -5 7 -7 15 -3 18 3
4 4 7 1 7 -2 0 -8 -3 -11 -7z"/>
<path d="M7295 8480 c3 -5 8 -10 11 -10 2 0 4 5 4 10 0 6 -5 10 -11 10 -5 0
-7 -4 -4 -10z"/>
<path d="M7350 8480 c0 -5 5 -10 11 -10 5 0 7 5 4 10 -3 6 -8 10 -11 10 -2 0
-4 -4 -4 -10z"/>
<path d="M7325 8470 c3 -5 8 -10 11 -10 2 0 4 5 4 10 0 6 -5 10 -11 10 -5 0
-7 -4 -4 -10z"/>
<path d="M7686 8465 c-3 -9 0 -15 9 -15 9 0 12 6 9 15 -4 8 -7 15 -9 15 -2 0
-5 -7 -9 -15z"/>
<path d="M7340 8442 c0 -5 7 -13 16 -16 22 -8 24 -8 24 6 0 6 -3 8 -7 5 -3 -4
-12 -2 -20 4 -8 7 -13 8 -13 1z"/>
<path d="M7488 8433 c7 -3 16 -2 19 1 4 3 -2 6 -13 5 -11 0 -14 -3 -6 -6z"/>
<path d="M3885 8410 c-3 -5 -1 -10 4 -10 6 0 11 5 11 10 0 6 -2 10 -4 10 -3 0
-8 -4 -11 -10z"/>
<path d="M7685 8379 c-4 -6 -5 -12 -2 -15 2 -3 7 2 10 11 7 17 1 20 -8 4z"/>
<path d="M458 8323 c-17 -20 -51 -83 -44 -83 2 0 15 17 27 38 13 20 27 43 32
50 12 18 3 15 -15 -5z"/>
<path d="M4077 8093 c-11 -10 -8 -23 4 -23 7 0 18 -8 26 -17 13 -16 13 -16 3
5 -6 12 -15 22 -21 22 -6 0 -7 5 -4 10 7 11 2 13 -8 3z"/>
<path d="M7255 7990 c-10 -11 -13 -20 -7 -20 6 0 16 9 22 20 6 11 9 20 7 20
-2 0 -12 -9 -22 -20z"/>
<path d="M4204 7935 c8 -9 13 -22 9 -30 -4 -11 -1 -13 11 -9 14 5 14 8 -1 30
-8 13 -20 24 -25 24 -5 0 -3 -7 6 -15z"/>
<path d="M7215 7940 c-3 -5 -2 -10 4 -10 5 0 13 5 16 10 3 6 2 10 -4 10 -5 0
-13 -4 -16 -10z"/>
<path d="M3463 7820 c-19 -11 -33 -28 -33 -39 0 -11 13 -25 33 -34 17 -8 53
-25 78 -36 45 -21 69 -52 69 -90 0 -10 -9 -44 -20 -77 -21 -61 -20 -89 6 -130
l16 -23 53 26 c30 15 51 31 48 36 -4 6 -1 7 6 2 35 -21 89 85 75 148 -35 162
-221 284 -331 217z m129 -2 c10 -2 24 -12 31 -22 7 -9 17 -16 22 -14 19 5 67
-35 62 -52 -3 -11 1 -17 11 -16 17 1 64 -72 56 -86 -3 -4 -1 -24 5 -43 7 -25
6 -33 -1 -29 -7 5 -9 -1 -5 -15 6 -25 -30 -71 -57 -71 -9 0 -16 -7 -16 -15 0
-8 -9 -15 -19 -15 -11 0 -26 -6 -33 -13 -15 -14 -32 -16 -44 -4 -24 24 -2 169
29 189 9 6 9 10 -1 17 -8 4 -13 11 -13 15 1 3 -6 17 -15 31 -9 13 -13 28 -10
33 3 5 -2 9 -12 9 -38 -1 -71 15 -65 31 4 14 3 15 -6 2 -9 -13 -14 -12 -37 6
-40 29 -40 42 -3 58 30 13 79 14 121 4z"/>
<path d="M3740 7660 c0 -5 5 -10 11 -10 5 0 7 5 4 10 -3 6 -8 10 -11 10 -2 0
-4 -4 -4 -10z"/>
<path d="M3625 7590 c-3 -5 -1 -10 4 -10 6 0 11 5 11 10 0 6 -2 10 -4 10 -3 0
-8 -4 -11 -10z"/>
<path d="M4285 7830 c-3 -6 1 -7 9 -4 18 7 21 14 7 14 -6 0 -13 -4 -16 -10z"/>
<path d="M7115 7800 c-3 -5 -3 -10 2 -10 4 0 1 -5 -7 -10 -13 -9 -13 -10 0
-10 13 0 13 -1 0 -10 -13 -8 -12 -10 3 -10 13 0 17 7 15 30 -2 33 -4 35 -13
20z"/>
<path d="M4356 7764 c-3 -9 -2 -12 5 -9 5 4 16 1 24 -5 8 -7 15 -8 15 -4 0 5
-9 15 -19 21 -16 10 -20 9 -25 -3z"/>
<path d="M7070 7681 c0 -6 4 -12 8 -15 5 -3 9 1 9 9 0 8 -4 15 -9 15 -4 0 -8
-4 -8 -9z"/>
<path d="M4490 7650 c0 -5 9 -10 21 -10 11 0 17 5 14 10 -3 6 -13 10 -21 10
-8 0 -14 -4 -14 -10z"/>
<path d="M4544 7632 c3 -5 0 -13 -6 -15 -9 -4 -10 -6 -1 -6 17 -1 25 16 12 25
-7 4 -9 3 -5 -4z"/>
<path d="M3386 7622 c-3 -5 16 -26 41 -47 43 -36 47 -37 59 -20 19 25 18 61
-2 69 -23 9 -92 7 -98 -2z m89 -10 c14 -10 12 -47 -2 -47 -16 0 -63 35 -63 46
0 11 51 12 65 1z"/>
<path d="M3438 7603 c7 -3 16 -2 19 1 4 3 -2 6 -13 5 -11 0 -14 -3 -6 -6z"/>
<path d="M7315 7570 c4 -6 11 -8 16 -5 14 9 11 15 -7 15 -8 0 -12 -5 -9 -10z"/>
<path d="M6485 7540 c-3 -5 -1 -10 4 -10 6 0 11 5 11 10 0 6 -2 10 -4 10 -3 0
-8 -4 -11 -10z"/>
<path d="M7410 7528 c0 -6 3 -8 7 -5 3 4 11 2 18 -3 8 -7 12 -6 12 3 0 7 -9
14 -19 14 -10 1 -18 -3 -18 -9z"/>
<path d="M4710 7510 c0 -6 7 -10 15 -10 8 0 15 2 15 4 0 2 -7 6 -15 10 -8 3
-15 1 -15 -4z"/>
<path d="M6390 7510 c0 -5 5 -10 11 -10 5 0 7 5 4 10 -3 6 -8 10 -11 10 -2 0
-4 -4 -4 -10z"/>
<path d="M7264 7508 c-5 -7 0 -9 14 -6 12 4 22 2 22 -4 0 -5 5 -6 11 -3 13 9
7 15 -19 20 -12 2 -25 -1 -28 -7z"/>
<path d="M6235 7470 c-19 -8 -19 -9 3 -9 12 -1 22 4 22 9 0 6 -1 10 -2 9 -2 0
-12 -4 -23 -9z"/>
<path d="M7576 7457 c3 -10 9 -15 12 -12 3 3 0 11 -7 18 -10 9 -11 8 -5 -6z"/>
<path d="M6125 7436 l-30 -13 27 1 c15 0 30 7 33 14 2 6 3 12 2 12 -1 -1 -15
-7 -32 -14z"/>
<path d="M4930 7416 c0 -2 8 -10 18 -17 15 -13 16 -12 3 4 -13 16 -21 21 -21
13z"/>
<path d="M5885 7360 c-3 -5 -1 -10 4 -10 6 0 11 5 11 10 0 6 -2 10 -4 10 -3 0
-8 -4 -11 -10z"/>
<path d="M5818 7353 c7 -3 16 -2 19 1 4 3 -2 6 -13 5 -11 0 -14 -3 -6 -6z"/>
<path d="M5290 7330 c0 -5 5 -10 11 -10 5 0 7 5 4 10 -3 6 -8 10 -11 10 -2 0
-4 -4 -4 -10z"/>
<path d="M5630 7330 c-12 -8 -9 -10 13 -10 15 0 27 5 27 10 0 13 -20 13 -40 0z"/>
<path d="M5398 7323 c7 -3 16 -2 19 1 4 3 -2 6 -13 5 -11 0 -14 -3 -6 -6z"/>
<path d="M5458 7323 c12 -2 30 -2 40 0 9 3 -1 5 -23 4 -22 0 -30 -2 -17 -4z"/>
<path d="M5995 6920 c3 -5 8 -10 11 -10 2 0 4 5 4 10 0 6 -5 10 -11 10 -5 0
-7 -4 -4 -10z"/>
<path d="M3771 6874 c0 -11 3 -14 6 -6 3 7 2 16 -1 19 -3 4 -6 -2 -5 -13z"/>
<path d="M6998 6792 c-37 -20 -68 -40 -68 -44 0 -5 19 -33 43 -63 39 -51 45
-55 84 -55 52 0 120 26 133 51 22 40 5 101 -38 137 -28 22 -84 13 -154 -26z
m160 2 c11 -11 23 -36 27 -57 7 -33 4 -40 -21 -62 -16 -14 -43 -28 -60 -31
-46 -8 -89 -1 -86 14 1 8 -1 11 -6 8 -11 -6 -52 48 -52 68 0 23 40 55 59 49 9
-4 13 -2 9 2 -13 14 35 34 74 31 20 -2 46 -12 56 -22z"/>
<path d="M6595 6670 c-200 -57 -228 -62 -307 -58 -54 3 -77 1 -75 -6 4 -12
198 -16 207 -5 3 3 16 10 30 14 23 7 24 7 10 -11 -14 -18 -14 -18 2 -5 10 7
15 17 12 22 -5 8 6 11 54 13 9 1 20 6 24 11 5 6 8 5 8 -2 0 -7 7 -13 15 -13 8
0 15 6 15 14 0 17 34 25 105 27 59 2 128 -18 119 -33 -4 -6 -2 -8 3 -5 6 4 16
0 23 -8 9 -10 9 -15 1 -15 -6 0 -11 -5 -11 -11 0 -5 5 -7 10 -4 6 3 10 2 10
-3 0 -20 -30 -33 -86 -38 -33 -3 -63 -10 -68 -15 -13 -12 7 -12 75 1 100 19
119 79 38 121 -59 30 -130 33 -214 9z"/>
<path d="M6061 6653 l-53 -4 4 -47 c9 -94 69 -175 162 -218 28 -13 65 -23 81
-23 17 1 22 3 13 6 -10 2 -18 9 -18 15 0 6 -9 8 -21 5 -26 -7 -81 12 -73 25 3
5 -1 8 -9 6 -8 -2 -26 9 -40 25 -15 15 -23 27 -19 27 4 0 -5 11 -20 25 -18 16
-25 31 -21 42 5 12 3 14 -7 8 -10 -6 -12 -4 -7 8 3 10 2 17 -3 17 -6 0 -10 16
-10 35 l0 36 50 -4 c28 -2 50 1 50 5 0 4 8 8 18 8 15 0 15 -2 2 -11 -13 -9
-12 -10 2 -5 10 3 24 -1 32 -9 16 -17 26 -19 26 -7 0 11 -56 42 -72 40 -7 -1
-37 -3 -67 -5z"/>
<path d="M4982 6593 c-87 -46 -322 -213 -322 -230 0 -19 57 -60 115 -82 64
-24 154 -27 193 -7 56 29 67 51 67 138 0 75 2 82 26 100 22 17 33 18 78 10 65
-12 116 9 116 48 0 34 -43 53 -130 58 -66 4 -75 1 -143 -35z m239 7 c29 -12
38 -33 19 -45 -5 -3 -10 -1 -10 5 0 6 -4 9 -10 5 -5 -3 -7 -12 -4 -19 4 -11
-11 -14 -73 -14 -95 -1 -113 -3 -107 -13 2 -4 -2 -13 -9 -20 -7 -7 -11 -25 -9
-42 3 -21 1 -28 -7 -23 -6 4 -11 2 -11 -3 0 -6 5 -11 10 -11 6 0 10 -16 10
-35 0 -19 -4 -35 -10 -35 -5 0 -10 -9 -10 -21 0 -11 -4 -17 -10 -14 -5 3 -10
-1 -10 -10 0 -9 -4 -14 -9 -11 -5 3 -11 0 -14 -8 -8 -19 -155 -15 -168 5 -5 8
-9 10 -9 6 0 -5 -6 -5 -12 0 -7 4 -19 8 -26 9 -23 4 -63 35 -57 44 4 6 1 10
-6 10 -8 0 -8 4 1 15 7 8 17 15 22 15 5 0 19 9 30 20 15 13 29 18 42 14 18 -6
19 -5 8 9 -11 13 -10 16 6 21 10 4 36 22 57 40 36 32 82 55 69 35 -3 -5 0 -9
5 -9 6 0 11 7 11 16 0 24 32 45 48 32 9 -8 11 -7 6 5 -4 12 3 17 30 23 20 3
36 10 36 14 0 12 137 4 171 -10z"/>
<path d="M4700 6339 c0 -5 5 -7 10 -4 6 3 10 8 10 11 0 2 -4 4 -10 4 -5 0 -10
-5 -10 -11z"/>
<path d="M6609 6563 c-1 -5 -1 -11 -1 -14 1 -8 -48 -23 -64 -20 -6 0 -17 -6
-24 -14 -7 -8 -9 -15 -4 -15 4 0 -21 -27 -55 -61 -45 -43 -69 -59 -82 -56 -12
3 -17 1 -12 -5 4 -8 -7 -9 -33 -5 -27 4 -34 3 -24 -3 40 -25 117 5 171 68 53
61 103 93 155 100 26 4 49 13 52 20 2 6 -1 12 -8 12 -6 0 -8 -4 -5 -10 3 -5
-3 -10 -14 -10 -10 0 -22 6 -24 13 -4 10 -6 10 -6 0 -1 -7 -6 -13 -12 -13 -5
0 -7 5 -4 10 3 6 4 10 1 10 -3 0 -7 -3 -7 -7z m-59 -47 c0 -2 -7 -7 -16 -10
-8 -3 -12 -2 -9 4 6 10 25 14 25 6z"/>
<path d="M6615 6431 c-11 -5 -28 -18 -38 -28 -30 -34 -4 -41 126 -36 100 5
115 8 105 20 -35 43 -139 66 -193 44z m113 -11 c2 -3 18 -7 33 -9 5 0 8 -5 5
-10 -4 -5 0 -12 6 -14 7 -3 -26 -4 -74 -2 -48 2 -92 6 -98 10 -6 3 -7 0 -4 -9
3 -9 1 -16 -5 -16 -6 0 -11 7 -11 15 0 18 37 38 56 31 8 -3 14 -2 14 3 0 7 70
8 78 1z m-91 -46 c-3 -3 -12 -4 -19 -1 -8 3 -5 6 6 6 11 1 17 -2 13 -5z"/>
<path d="M5184 6390 c-12 -4 -24 -14 -26 -22 -6 -16 8 -58 20 -58 4 0 28 20
52 45 l44 45 -34 -1 c-19 0 -44 -4 -56 -9z m61 -10 c-4 -6 -10 -8 -15 -5 -5 3
-11 -3 -14 -13 -6 -19 -42 -27 -51 -12 -3 5 5 16 17 24 25 18 73 22 63 6z"/>
<path d="M2460 4640 c0 -5 6 -10 13 -10 7 0 23 -9 35 -20 12 -12 22 -18 22
-14 0 4 8 -3 19 -14 10 -12 24 -22 30 -22 7 0 9 -5 5 -12 -4 -6 -3 -8 4 -4 15
9 52 -42 45 -62 -6 -15 -5 -15 10 -3 18 14 22 8 18 -29 -2 -12 0 -12 7 -2 7
11 12 6 20 -16 6 -17 7 -34 4 -38 -4 -4 -1 -3 7 1 11 6 13 4 8 -7 -3 -9 -3
-19 1 -22 3 -4 7 -12 9 -19 1 -7 6 -28 11 -47 4 -19 8 -51 8 -72 -1 -20 2 -34
6 -32 4 3 14 -9 23 -26 8 -16 13 -30 10 -30 -3 0 3 -10 15 -22 11 -12 20 -27
20 -34 0 -6 9 -23 20 -37 11 -14 17 -32 14 -40 -3 -8 3 -21 14 -28 10 -8 24
-24 30 -36 10 -18 9 -24 -5 -33 -17 -10 -17 -10 1 -8 14 2 22 -7 33 -37 9 -26
10 -41 3 -43 -5 -2 -10 -11 -10 -20 0 -15 1 -15 16 0 16 15 16 20 0 70 -10 29
-51 117 -92 195 -59 111 -79 161 -95 233 -33 153 -79 222 -207 309 -65 44 -72
47 -72 31z"/>
<path d="M6547 4548 c2 -5 57 -8 122 -8 65 0 121 -3 125 -7 4 -5 12 -9 17 -9
5 -1 14 -2 19 -3 17 -2 81 -72 74 -82 -3 -5 0 -9 6 -9 6 0 9 -4 5 -9 -3 -5 -1
-12 5 -16 9 -5 27 -100 22 -118 -1 -4 4 -6 10 -5 7 2 12 -3 10 -9 -1 -7 2 -13
7 -13 5 0 8 -8 7 -17 0 -10 5 -17 12 -15 8 1 28 -6 46 -18 18 -11 36 -17 39
-13 4 3 7 1 7 -5 0 -7 3 -11 8 -11 27 5 41 -2 35 -18 -5 -13 -2 -15 12 -9 24
9 65 -29 58 -54 -3 -13 0 -18 13 -17 12 2 20 -9 27 -33 7 -22 12 -29 14 -18 5
22 -25 80 -37 73 -6 -3 -7 0 -4 8 8 22 -47 62 -126 92 -84 32 -107 60 -140
173 -25 86 -63 134 -123 156 -44 16 -279 28 -270 14z"/>
<path d="M6571 4464 c0 -11 3 -14 6 -6 3 7 2 16 -1 19 -3 4 -6 -2 -5 -13z"/>
<path d="M6606 4393 c-6 -14 -5 -15 5 -6 7 7 10 15 7 18 -3 3 -9 -2 -12 -12z"/>
<path d="M6637 4326 c-6 -16 2 -28 14 -20 12 7 11 34 0 34 -5 0 -11 -6 -14
-14z"/>
<path d="M4070 4096 c0 -13 7 -29 15 -36 21 -17 77 -5 104 24 l22 23 -23 7
c-13 3 -44 6 -70 6 -44 0 -48 -2 -48 -24z m105 -6 c0 -8 -7 -15 -15 -15 -8 0
-21 -4 -29 -9 -8 -5 -16 -3 -22 5 -7 11 -9 11 -9 1 0 -7 -4 -10 -10 -7 -5 3
-10 15 -10 26 0 18 6 20 48 17 34 -2 47 -7 47 -18z"/>
<path d="M6755 4080 c-3 -5 -1 -10 4 -10 6 0 11 5 11 10 0 6 -2 10 -4 10 -3 0
-8 -4 -11 -10z"/>
<path d="M4266 4059 c-15 -12 -46 -47 -68 -78 -23 -31 -42 -58 -44 -60 -2 -2
-18 6 -37 18 -24 14 -51 21 -87 21 -46 0 -51 -2 -44 -17 4 -10 8 -38 9 -63 0
-57 12 -60 96 -24 55 23 78 27 171 28 98 1 108 3 132 25 44 42 30 128 -25 157
-39 20 -72 18 -103 -7z m84 -4 c0 -8 5 -15 11 -15 5 0 7 6 3 13 -5 8 -3 8 9
-2 9 -7 14 -17 11 -22 -3 -5 2 -12 10 -15 9 -3 16 -10 16 -16 0 -5 -5 -6 -11
-2 -8 4 -7 0 1 -15 14 -28 5 -58 -23 -73 -27 -14 -186 -13 -201 2 -7 7 -5 15
8 28 11 9 16 11 12 5 -4 -7 -3 -13 2 -13 5 0 12 9 15 20 3 11 1 18 -4 14 -25
-15 -4 20 37 60 33 34 53 46 75 46 19 0 29 -5 29 -15z m-297 -118 c-5 -9 -2
-8 9 1 13 10 19 10 31 -2 8 -8 17 -12 21 -9 3 4 6 -1 6 -10 0 -10 6 -14 14
-11 8 3 17 0 21 -6 3 -6 3 -10 -2 -9 -4 1 -25 -5 -45 -14 -50 -23 -67 -21 -78
6 -6 16 -9 17 -9 5 -1 -9 4 -20 9 -23 17 -10 11 -25 -9 -25 -16 0 -18 7 -16
47 2 27 -1 51 -6 54 -6 3 6 6 26 7 26 1 34 -2 28 -11z"/>
<path d="M4296 4048 c3 -5 10 -6 15 -3 13 9 11 12 -6 12 -8 0 -12 -4 -9 -9z"/>
<path d="M4015 3931 c-3 -5 -2 -12 3 -15 5 -3 9 1 9 9 0 17 -3 19 -12 6z"/>
<path d="M2570 4040 c0 -5 5 -10 11 -10 5 0 7 5 4 10 -3 6 -8 10 -11 10 -2 0
-4 -4 -4 -10z"/>
<path d="M6784 4025 c3 -23 12 -26 13 -5 1 11 -2 20 -7 20 -4 0 -7 -7 -6 -15z"/>
<path d="M2578 4013 c7 -3 16 -2 19 1 4 3 -2 6 -13 5 -11 0 -14 -3 -6 -6z"/>
<path d="M6800 3981 c0 -6 4 -13 10 -16 6 -3 7 1 4 9 -7 18 -14 21 -14 7z"/>
<path d="M6850 3889 c0 -11 4 -18 10 -14 5 3 7 12 3 20 -7 21 -13 19 -13 -6z"/>
<path d="M6896 3787 c3 -10 9 -15 12 -12 3 3 0 11 -7 18 -10 9 -11 8 -5 -6z"/>
<path d="M2621 3724 c0 -11 3 -14 6 -6 3 7 2 16 -1 19 -3 4 -6 -2 -5 -13z"/>
<path d="M6920 3720 c0 -6 7 -10 15 -10 8 0 15 2 15 4 0 2 -7 6 -15 10 -8 3
-15 1 -15 -4z"/>
<path d="M2615 3670 c3 -5 8 -10 11 -10 2 0 4 5 4 10 0 6 -5 10 -11 10 -5 0
-7 -4 -4 -10z"/>
<path d="M2614 3538 c3 -19 25 -55 26 -41 0 6 -5 15 -10 18 -6 4 -8 10 -5 15
3 5 1 11 -4 14 -5 4 -8 0 -7 -6z"/>
<path d="M2732 3393 c-19 -7 -42 -58 -42 -93 l0 -30 80 52 c44 29 80 56 80 59
0 15 -88 24 -118 12z m75 -9 c27 -7 20 -24 -9 -24 -12 0 -18 -3 -15 -7 10 -10
-31 -35 -45 -27 -7 4 -8 3 -4 -4 3 -6 -3 -16 -14 -22 -13 -7 -20 -7 -20 0 0 5
6 10 13 11 10 0 10 2 0 6 -18 7 -16 16 8 47 20 26 44 31 86 20z"/>
<path d="M3965 2936 c-18 -13 -18 -15 2 -67 16 -42 25 -53 39 -51 47 8 58 69
19 107 -28 29 -34 30 -60 11z m64 -25 c13 -27 7 -63 -12 -75 -14 -9 -20 -8
-27 4 -14 21 -12 32 3 25 6 -4 4 0 -5 8 -10 8 -15 17 -11 20 3 4 1 7 -5 7 -19
0 -14 28 6 32 24 6 41 -1 51 -21z"/>
<path d="M5270 4070 c0 -5 5 -10 10 -10 6 0 10 5 10 10 0 6 -4 10 -10 10 -5 0
-10 -4 -10 -10z"/>
<path d="M5705 4057 c-20 -17 -27 -32 -27 -59 0 -45 19 -81 38 -74 9 3 12 1 9
-4 -3 -6 -4 -10 -1 -10 2 0 10 -2 18 -5 9 -4 13 6 13 37 0 24 4 64 8 91 8 43
7 47 -12 47 -11 0 -32 -10 -46 -23z m50 -8 c-2 -9 -7 -37 -10 -62 -6 -37 -10
-44 -28 -43 -32 1 -37 80 -8 105 26 23 50 23 46 0z"/>
<path d="M5700 3960 c0 -5 5 -10 11 -10 5 0 7 5 4 10 -3 6 -8 10 -11 10 -2 0
-4 -4 -4 -10z"/>
<path d="M5310 3973 c5 -2 8 -8 6 -12 -3 -4 0 -13 5 -21 8 -12 9 -9 7 9 -2 14
-9 26 -16 27 -7 1 -8 0 -2 -3z"/>
<path d="M5355 3851 c-3 -5 -2 -12 3 -15 5 -3 9 1 9 9 0 17 -3 19 -12 6z"/>
<path d="M5673 3495 c0 -8 4 -12 9 -9 5 3 6 10 3 15 -9 13 -12 11 -12 -6z"/>
<path d="M5700 3466 c0 -2 7 -7 16 -10 8 -3 12 -2 9 4 -6 10 -25 14 -25 6z"/>
<path d="M5775 3430 c3 -5 11 -10 16 -10 6 0 7 5 4 10 -3 6 -11 10 -16 10 -6
0 -7 -4 -4 -10z"/>
<path d="M4570 3835 c-7 -9 -8 -15 -2 -15 5 0 12 7 16 15 3 8 4 15 2 15 -2 0
-9 -7 -16 -15z"/>
<path d="M4356 3363 c-6 -14 -5 -15 5 -6 7 7 10 15 7 18 -3 3 -9 -2 -12 -12z"/>
<path d="M4316 3257 c3 -10 9 -15 12 -12 3 3 0 11 -7 18 -10 9 -11 8 -5 -6z"/>
<path d="M4091 3164 c0 -11 3 -14 6 -6 3 7 2 16 -1 19 -3 4 -6 -2 -5 -13z"/>
<path d="M7975 3800 c3 -5 8 -10 11 -10 2 0 4 5 4 10 0 6 -5 10 -11 10 -5 0
-7 -4 -4 -10z"/>
<path d="M8052 3585 c-1 -21 3 -33 8 -30 6 4 8 18 6 32 -7 38 -13 37 -14 -2z"/>
<path d="M8050 3289 c0 -5 5 -7 10 -4 6 3 10 8 10 11 0 2 -4 4 -10 4 -5 0 -10
-5 -10 -11z"/>
<path d="M8020 3195 c0 -8 4 -15 10 -15 5 0 7 7 4 15 -4 8 -8 15 -10 15 -2 0
-4 -7 -4 -15z"/>
<path d="M2291 3246 c-17 -20 -10 -77 12 -90 25 -16 51 4 55 43 4 36 -12 61
-38 61 -10 0 -23 -6 -29 -14z"/>
</g>
</svg>
